<svg width="56" height="56" viewBox="0 0 56 56"  xmlns="http://www.w3.org/2000/svg">
<path d="M44.4957 20.0805C44.6315 20.0805 44.7695 20.0578 44.9053 20.0099C45.5646 19.7775 45.9159 19.0401 45.6894 18.3627C43.0342 10.4096 35.6447 5.06632 27.3014 5.06632C24.5298 5.06666 21.8539 5.64259 19.3475 6.7782C16.9045 7.88459 14.7489 9.46161 12.941 11.4648C12.4671 11.9899 12.4969 12.8103 13.008 13.2974C13.519 13.7845 14.3176 13.7535 14.7916 13.2284C16.3643 11.4861 18.2396 10.1143 20.3657 9.15143C22.5497 8.16192 24.8831 7.66017 27.3014 7.65982C34.5664 7.65982 40.9966 12.2993 43.3021 19.2044C43.4817 19.7421 43.9713 20.0805 44.4957 20.0805Z" />
<path d="M22.2248 40.4121C25.0523 40.4121 27.3529 38.0484 27.3529 35.1432C27.3529 32.2379 25.0523 29.8742 22.2248 29.8742C19.3973 29.8742 17.097 32.2379 17.097 35.1432C17.097 38.0484 19.3973 40.4121 22.2248 40.4121ZM22.2248 32.4679C23.6607 32.4679 24.8288 33.668 24.8288 35.1433C24.8288 36.6185 23.6608 37.8188 22.2248 37.8188C20.7893 37.8188 19.6211 36.6187 19.6211 35.1433C19.6211 33.668 20.7893 32.4679 22.2248 32.4679Z" />
<path d="M-2.46738e-06 26.8597C-2.46738e-06 12.0492 11.9795 0 26.7044 0C41.4293 0 53.4091 12.0491 53.4091 26.8597C53.4091 27.4609 53.0068 27.9835 52.4374 28.1217C52.346 28.1438 51.8526 28.2543 51.0939 28.2543C49.864 28.2543 48.0054 27.9642 46.1354 26.5824C45.3033 25.9675 44.4195 25.5901 43.5465 25.4637L43.1854 35.2175L55.034 38.1556C55.6601 38.3109 56.0722 38.9262 55.9894 39.5827L54.0625 54.8712C53.984 55.4937 53.4832 55.969 52.8735 55.9999C52.8436 56.0015 47.124 55.9999 43.6571 52.788C41.5619 50.8466 40.4474 48.1292 40.3103 44.7497C40.3089 44.7153 40.3451 43.7019 40.3451 43.7019L36.6293 43.3182C35.9407 44.6461 34.9949 45.9493 33.6956 47.2028C31.745 49.0851 28.8729 50.1647 25.8158 50.1647C22.8717 50.1647 20.127 49.2055 18.0877 47.464C15.8328 45.5377 13.4167 43.6395 10.7984 43.3167L6.24393 45.2509C6.08744 45.3175 5.92388 45.3493 5.7625 45.3493C5.35108 45.3493 4.95261 45.142 4.71248 44.7725L0.507675 38.3017C0.352864 38.0638 0.279332 37.7801 0.29801 37.4946L0.617054 32.6091C0.208656 30.7276 -2.46738e-06 28.7948 -2.46738e-06 26.8597ZM53.0877 42.411L53.3408 40.404L43.0873 37.8613L42.9575 41.3653L53.0877 42.411ZM45.3462 50.861C47.3631 52.8015 50.202 53.2609 51.7057 53.377L52.7633 44.9843L42.8611 43.9619C42.8611 43.9619 42.7442 48.3576 45.3462 50.861ZM41.0059 25.8662C40.5553 26.0941 40.1396 26.4044 39.7763 26.7905C38.7654 27.8637 38.2395 29.4115 38.2954 31.1488C38.304 31.4089 38.313 31.6706 38.3223 31.9338C38.3467 32.6197 38.3709 33.3187 38.3819 34.0264L40.6822 34.597L41.0059 25.8662ZM40.4414 41.1051L40.5844 37.2404L38.3321 36.682C38.2466 38.0531 38.0455 39.4394 37.6363 40.8155L40.4414 41.1051ZM19.7011 45.4696C21.2652 46.8053 23.4938 47.5712 25.8154 47.5712C28.2377 47.5712 30.4801 46.7477 31.968 45.3123C36.1285 41.2982 35.9614 36.5855 35.8001 32.0282C35.7908 31.7619 35.7814 31.4974 35.7728 31.2342C35.6942 28.7886 36.4718 26.5699 37.9624 24.987C39.2789 23.5889 41.0357 22.819 42.9089 22.819C44.5161 22.819 46.1413 23.3924 47.6091 24.4768C48.8163 25.3688 50.0046 25.6184 50.8556 25.6554C50.2285 12.8318 39.6355 2.59368 26.7044 2.59368C13.3711 2.59368 2.52409 13.4795 2.52409 26.8599C2.52409 28.5498 2.69893 30.238 3.04406 31.8833L11.2063 40.7555C14.4629 41.1993 17.2904 43.4104 19.7011 45.4696ZM6.23653 42.4475L8.43232 41.5151L2.95386 35.5607L2.84482 37.2283L6.23653 42.4475Z" />
</svg>
