<svg width="16" height="16" viewBox="0 0 16 16" fill="none" xmlns="http://www.w3.org/2000/svg">
<circle cx="8" cy="8" r="8" fill="#A855F7"/>
<path d="M12.0627 5.81048C12.0129 5.75869 11.9537 5.71759 11.8884 5.68955C11.8231 5.6615 11.7531 5.64706 11.6824 5.64706C11.6116 5.64706 11.5416 5.6615 11.4763 5.68955C11.411 5.71759 11.3518 5.75869 11.302 5.81048L7.31061 9.93185L5.6337 8.19712C5.58198 8.14561 5.52094 8.1051 5.45405 8.07792C5.38716 8.05074 5.31573 8.03741 5.24384 8.03869C5.17195 8.03997 5.10101 8.05584 5.03507 8.0854C4.96913 8.11495 4.90948 8.15761 4.85953 8.21093C4.80958 8.26426 4.7703 8.3272 4.74394 8.39618C4.71758 8.46516 4.70465 8.53882 4.70589 8.61295C4.70714 8.68708 4.72253 8.76023 4.75119 8.82822C4.77985 8.89622 4.82121 8.95773 4.87292 9.00924L6.93022 11.1307C6.98003 11.1825 7.03928 11.2236 7.10457 11.2516C7.16985 11.2797 7.23988 11.2941 7.31061 11.2941C7.38133 11.2941 7.45136 11.2797 7.51664 11.2516C7.58193 11.2236 7.64119 11.1825 7.69099 11.1307L12.0627 6.6226C12.1171 6.57086 12.1605 6.50808 12.1902 6.43819C12.2199 6.3683 12.2352 6.29283 12.2352 6.21654C12.2352 6.14024 12.2199 6.06477 12.1902 5.99489C12.1605 5.925 12.1171 5.86221 12.0627 5.81048V5.81048Z" fill="white"/>
</svg>
