<svg width="24" height="24" viewBox="0 0 24 24" fill="none" xmlns="http://www.w3.org/2000/svg">
<path d="M10 15H12.5C12.8978 15 13.2794 14.842 13.5607 14.5607C13.842 14.2794 14 13.8978 14 13.5V13.5C14 13.1022 13.842 12.7206 13.5607 12.4393C13.2794 12.158 12.8978 12 12.5 12H11.5C11.1022 12 10.7206 11.842 10.4393 11.5607C10.158 11.2794 10 10.8978 10 10.5C10 10.1022 10.158 9.72064 10.4393 9.43934C10.7206 9.15804 11.1022 9 11.5 9H14" stroke-width="2" stroke-linecap="round" stroke-linejoin="round"/>
<path d="M12 9V8V9ZM12 16V15V16ZM12 3C10.22 3 8.47991 3.52784 6.99987 4.51677C5.51983 5.50571 4.36628 6.91131 3.68509 8.55585C3.0039 10.2004 2.82567 12.01 3.17294 13.7558C3.5202 15.5016 4.37737 17.1053 5.63604 18.364C6.89472 19.6226 8.49836 20.4798 10.2442 20.8271C11.99 21.1743 13.7996 20.9961 15.4442 20.3149C17.0887 19.6337 18.4943 18.4802 19.4832 17.0001C20.4722 15.5201 21 13.78 21 12C21 9.61305 20.0518 7.32387 18.364 5.63604C16.6761 3.94821 14.387 3 12 3V3Z" stroke-width="2" stroke-linecap="round" stroke-linejoin="round"/>
</svg>
