<svg width="24" height="24" viewBox="0 0 24 24" fill="none" xmlns="http://www.w3.org/2000/svg">
<path d="M10.6346 16.3026H13.3654V22C13.3654 22.4142 13.0296 22.75 12.6154 22.75H11.3846C10.9704 22.75 10.6346 22.4142 10.6346 22V16.3026Z" stroke="black" stroke-width="0.5"/>
<rect x="11.4615" y="12.5789" width="1.07692" height="3.47368" fill="black"/>
<path d="M17.9231 1.53846C17.9231 1.24108 18.1642 1 18.4616 1V1C18.7589 1 19 1.24108 19 1.53846V12.0405C19 12.3379 18.7589 12.5789 18.4616 12.5789V12.5789C18.1642 12.5789 17.9231 12.3379 17.9231 12.0405V1.53846Z" fill="black"/>
<path d="M5 1.53846C5 1.24108 5.24108 1 5.53846 1V1C5.83585 1 6.07692 1.24108 6.07692 1.53846V12.0405C6.07692 12.3379 5.83585 12.5789 5.53846 12.5789V12.5789C5.24108 12.5789 5 12.3379 5 12.0405V1.53846Z" fill="black"/>
<rect x="5" y="11.4211" width="14" height="1.15789" rx="0.578947" fill="black"/>
</svg>
