<svg width="56" height="56" viewBox="0 0 56 56" fill="none" xmlns="http://www.w3.org/2000/svg">
<path d="M11.5043 20.0804C11.3685 20.0804 11.2305 20.0578 11.0947 20.0099C10.4354 19.7775 10.0841 19.0401 10.3106 18.3627C12.9658 10.4096 20.3553 5.06631 28.6986 5.06631C31.4702 5.06666 34.1461 5.64259 36.6525 6.7782C39.0955 7.88459 41.2511 9.46161 43.059 11.4648C43.5329 11.9899 43.5031 12.8103 42.992 13.2974C42.481 13.7845 41.6824 13.7535 41.2084 13.2284C39.6357 11.4861 37.7604 10.1143 35.6343 9.15143C33.4503 8.16192 31.1169 7.66016 28.6986 7.65982C21.4336 7.65982 15.0034 12.2992 12.6979 19.2044C12.5183 19.7421 12.0287 20.0804 11.5043 20.0804Z" fill="black"/>
<path d="M33.7752 40.4121C30.9477 40.4121 28.6471 38.0484 28.6471 35.1432C28.6471 32.2379 30.9477 29.8742 33.7752 29.8742C36.6027 29.8742 38.903 32.2379 38.903 35.1432C38.903 38.0484 36.6027 40.4121 33.7752 40.4121ZM33.7752 32.4679C32.3393 32.4679 31.1712 33.668 31.1712 35.1433C31.1712 36.6185 32.3392 37.8188 33.7752 37.8188C35.2107 37.8188 36.3789 36.6187 36.3789 35.1433C36.3789 33.668 35.2107 32.4679 33.7752 32.4679Z" fill="black"/>
<path d="M56 26.8597C56 12.0492 44.0205 0 29.2956 0C14.5707 0 2.59085 12.0491 2.59085 26.8597C2.59085 27.4609 2.9932 27.9835 3.56263 28.1217C3.654 28.1438 4.14738 28.2543 4.90612 28.2543C6.13603 28.2543 7.9946 27.9642 9.86462 26.5824C10.6967 25.9675 11.5805 25.5901 12.4535 25.4637L12.8146 35.2175L0.966012 38.1556C0.339868 38.3109 -0.0722323 38.9262 0.010558 39.5827L1.93745 54.8712C2.01603 55.4937 2.51681 55.969 3.12647 55.9999C3.15642 56.0015 8.87602 55.9999 12.3429 52.788C14.4381 50.8466 15.5526 48.1292 15.6897 44.7497C15.6911 44.7153 15.6549 43.7019 15.6549 43.7019L19.3707 43.3182C20.0593 44.6461 21.0051 45.9493 22.3044 47.2028C24.255 49.0851 27.1271 50.1647 30.1842 50.1647C33.1283 50.1647 35.873 49.2055 37.9123 47.464C40.1672 45.5377 42.5833 43.6395 45.2016 43.3167L49.7561 45.2509C49.9126 45.3175 50.0761 45.3493 50.2375 45.3493C50.6489 45.3493 51.0474 45.142 51.2875 44.7725L55.4923 38.3017C55.6471 38.0638 55.7207 37.7801 55.702 37.4946L55.3829 32.6091C55.7913 30.7276 56 28.7948 56 26.8597ZM2.91226 42.411L2.65917 40.404L12.9127 37.8613L13.0425 41.3653L2.91226 42.411ZM10.6538 50.861C8.6369 52.8015 5.79797 53.2609 4.29428 53.377L3.23669 44.9843L13.1389 43.9619C13.1389 43.9619 13.2558 48.3576 10.6538 50.861ZM14.9941 25.8662C15.4447 26.0941 15.8604 26.4044 16.2237 26.7905C17.2346 27.8637 17.7605 29.4115 17.7046 31.1488C17.696 31.4089 17.687 31.6706 17.6777 31.9338C17.6533 32.6197 17.6291 33.3187 17.6181 34.0264L15.3178 34.597L14.9941 25.8662ZM15.5586 41.1051L15.4156 37.2404L17.6679 36.682C17.7534 38.0531 17.9545 39.4394 18.3637 40.8155L15.5586 41.1051ZM36.2989 45.4696C34.7348 46.8053 32.5062 47.5712 30.1846 47.5712C27.7623 47.5712 25.5199 46.7477 24.032 45.3123C19.8715 41.2982 20.0386 36.5855 20.1999 32.0282C20.2092 31.7619 20.2186 31.4974 20.2272 31.2342C20.3058 28.7886 19.5282 26.5699 18.0376 24.987C16.7211 23.5889 14.9643 22.819 13.0911 22.819C11.4839 22.819 9.85873 23.3924 8.39089 24.4768C7.1837 25.3688 5.99535 25.6184 5.1444 25.6554C5.77155 12.8318 16.3645 2.59368 29.2956 2.59368C42.6289 2.59368 53.4759 13.4795 53.4759 26.8599C53.4759 28.5498 53.3011 30.238 52.9559 31.8833L44.7937 40.7555C41.5371 41.1993 38.7096 43.4104 36.2989 45.4696ZM49.7635 42.4475L47.5677 41.5151L53.0461 35.5607L53.1552 37.2283L49.7635 42.4475Z" fill="black"/>
</svg>
