<svg width="16" height="16" viewBox="0 0 16 16" fill="none" xmlns="http://www.w3.org/2000/svg">
<circle cx="8" cy="8" r="8" fill="white"/>
<path d="M7.33381 11.4545V6H8.84659V11.4545H7.33381ZM8.09375 5.29687C7.86884 5.29687 7.6759 5.2223 7.51491 5.07315C7.3563 4.92164 7.27699 4.74053 7.27699 4.52983C7.27699 4.32149 7.3563 4.14275 7.51491 3.99361C7.6759 3.84209 7.86884 3.76633 8.09375 3.76633C8.31866 3.76633 8.51042 3.84209 8.66903 3.99361C8.83002 4.14275 8.91051 4.32149 8.91051 4.52983C8.91051 4.74053 8.83002 4.92164 8.66903 5.07315C8.51042 5.2223 8.31866 5.29687 8.09375 5.29687Z" fill="#051A4C"/>
</svg>
