<svg width="26" height="26" viewBox="0 0 26 26" fill="none" xmlns="http://www.w3.org/2000/svg">
<g filter="url(#filter0_d_134_395)">
<circle cx="13" cy="13" r="8" fill="#FBFBFB"/>
</g>
<path d="M13.6804 8.27273L13.5398 14.4347H12.1676L12.0312 8.27273H13.6804ZM12.8537 17.0938C12.5952 17.0938 12.3736 17.0028 12.1889 16.821C12.0071 16.6392 11.9162 16.4176 11.9162 16.1562C11.9162 15.9006 12.0071 15.6818 12.1889 15.5C12.3736 15.3182 12.5952 15.2273 12.8537 15.2273C13.1065 15.2273 13.3253 15.3182 13.5099 15.5C13.6974 15.6818 13.7912 15.9006 13.7912 16.1562C13.7912 16.3295 13.7472 16.4872 13.6591 16.6293C13.5739 16.7713 13.4602 16.8849 13.3182 16.9702C13.179 17.0526 13.0241 17.0938 12.8537 17.0938Z" fill="#A855F7"/>
<defs>
<filter id="filter0_d_134_395" x="0" y="0" width="26" height="26" filterUnits="userSpaceOnUse" color-interpolation-filters="sRGB">
<feFlood flood-opacity="0" result="BackgroundImageFix"/>
<feColorMatrix in="SourceAlpha" type="matrix" values="0 0 0 0 0 0 0 0 0 0 0 0 0 0 0 0 0 0 127 0" result="hardAlpha"/>
<feOffset/>
<feGaussianBlur stdDeviation="2.5"/>
<feComposite in2="hardAlpha" operator="out"/>
<feColorMatrix type="matrix" values="0 0 0 0 0.3 0 0 0 0 0.3 0 0 0 0 0.3 0 0 0 0.15 0"/>
<feBlend mode="normal" in2="BackgroundImageFix" result="effect1_dropShadow_134_395"/>
<feBlend mode="normal" in="SourceGraphic" in2="effect1_dropShadow_134_395" result="shape"/>
</filter>
</defs>
</svg>
