<svg width="24" height="24" viewBox="0 0 24 24" fill="none" xmlns="http://www.w3.org/2000/svg">
<path d="M10.25 17.25H12.75V22C12.75 22.4142 12.4142 22.75 12 22.75H11C10.5858 22.75 10.25 22.4142 10.25 22V17.25Z" stroke="black" stroke-width="0.5"/>
<rect x="11" y="14" width="1" height="3" fill="black"/>
<path d="M17 4.5C17 4.22386 17.2239 4 17.5 4V4C17.7761 4 18 4.22386 18 4.5V13.5C18 13.7761 17.7761 14 17.5 14V14C17.2239 14 17 13.7761 17 13.5V4.5Z" fill="black"/>
<path d="M5 4.5C5 4.22386 5.22386 4 5.5 4V4C5.77614 4 6 4.22386 6 4.5V13.5C6 13.7761 5.77614 14 5.5 14V14C5.22386 14 5 13.7761 5 13.5V4.5Z" fill="black"/>
<rect x="5" y="13" width="13" height="1" rx="0.5" fill="black"/>
</svg>
