<svg width="16" height="16" viewBox="0 0 16 16" fill="none" xmlns="http://www.w3.org/2000/svg">
<circle cx="8" cy="8" r="8" fill="#22C55E"/>
<path d="M12.0628 5.81048C12.013 5.7587 11.9537 5.7176 11.8885 5.68955C11.8232 5.6615 11.7531 5.64706 11.6824 5.64706C11.6117 5.64706 11.5417 5.6615 11.4764 5.68955C11.4111 5.7176 11.3518 5.7587 11.302 5.81048L7.31067 9.93186L5.63376 8.19712C5.58204 8.14561 5.521 8.10511 5.45411 8.07793C5.38722 8.05074 5.31579 8.03741 5.2439 8.03869C5.17201 8.03998 5.10107 8.05585 5.03513 8.0854C4.96919 8.11495 4.90954 8.15761 4.85959 8.21094C4.80964 8.26426 4.77036 8.32721 4.744 8.39619C4.71764 8.46516 4.70471 8.53882 4.70595 8.61295C4.7072 8.68708 4.72259 8.76023 4.75125 8.82823C4.77991 8.89623 4.82127 8.95773 4.87299 9.00925L6.93028 11.1307C6.98009 11.1825 7.03934 11.2236 7.10463 11.2516C7.16992 11.2797 7.23994 11.2941 7.31067 11.2941C7.38139 11.2941 7.45142 11.2797 7.51671 11.2516C7.58199 11.2236 7.64125 11.1825 7.69105 11.1307L12.0628 6.6226C12.1172 6.57087 12.1606 6.50808 12.1903 6.43819C12.22 6.36831 12.2353 6.29284 12.2353 6.21654C12.2353 6.14025 12.22 6.06478 12.1903 5.99489C12.1606 5.925 12.1172 5.86222 12.0628 5.81048V5.81048Z" fill="white"/>
</svg>
