<svg width="26" height="26" viewBox="0 0 26 26" fill="none" xmlns="http://www.w3.org/2000/svg">
<g filter="url(#filter0_d_83_390)">
<circle cx="13" cy="13" r="8" fill="#DC2626"/>
</g>
<path d="M12.3733 13L9.57331 10.2044C9.48962 10.1208 9.4426 10.0072 9.4426 9.88889C9.4426 9.77053 9.48962 9.65702 9.57331 9.57333C9.657 9.48964 9.77051 9.44263 9.88886 9.44263C10.0072 9.44263 10.1207 9.48964 10.2044 9.57333L13 12.3733L15.7955 9.57333C15.8792 9.48964 15.9927 9.44263 16.1111 9.44263C16.2294 9.44263 16.3429 9.48964 16.4266 9.57333C16.5103 9.65702 16.5573 9.77053 16.5573 9.88889C16.5573 10.0072 16.5103 10.1208 16.4266 10.2044L13.6266 13L16.4266 15.7956C16.4683 15.8369 16.5014 15.886 16.5239 15.9402C16.5465 15.9943 16.5581 16.0524 16.5581 16.1111C16.5581 16.1698 16.5465 16.2279 16.5239 16.282C16.5014 16.3362 16.4683 16.3854 16.4266 16.4267C16.3853 16.4683 16.3362 16.5014 16.282 16.524C16.2278 16.5465 16.1698 16.5581 16.1111 16.5581C16.0524 16.5581 15.9943 16.5465 15.9402 16.524C15.886 16.5014 15.8368 16.4683 15.7955 16.4267L13 13.6267L10.2044 16.4267C10.1631 16.4683 10.1139 16.5014 10.0598 16.524C10.0056 16.5465 9.94753 16.5581 9.88886 16.5581C9.83019 16.5581 9.7721 16.5465 9.71794 16.524C9.66378 16.5014 9.61462 16.4683 9.57331 16.4267C9.53165 16.3854 9.49858 16.3362 9.47602 16.282C9.45346 16.2279 9.44184 16.1698 9.44184 16.1111C9.44184 16.0524 9.45346 15.9943 9.47602 15.9402C9.49858 15.886 9.53165 15.8369 9.57331 15.7956L12.3733 13Z" fill="#FBFBFB"/>
<defs>
<filter id="filter0_d_83_390" x="0" y="0" width="26" height="26" filterUnits="userSpaceOnUse" color-interpolation-filters="sRGB">
<feFlood flood-opacity="0" result="BackgroundImageFix"/>
<feColorMatrix in="SourceAlpha" type="matrix" values="0 0 0 0 0 0 0 0 0 0 0 0 0 0 0 0 0 0 127 0" result="hardAlpha"/>
<feOffset/>
<feGaussianBlur stdDeviation="2.5"/>
<feComposite in2="hardAlpha" operator="out"/>
<feColorMatrix type="matrix" values="0 0 0 0 0.3 0 0 0 0 0.3 0 0 0 0 0.3 0 0 0 0.15 0"/>
<feBlend mode="normal" in2="BackgroundImageFix" result="effect1_dropShadow_83_390"/>
<feBlend mode="normal" in="SourceGraphic" in2="effect1_dropShadow_83_390" result="shape"/>
</filter>
</defs>
</svg>
